<svg width="375" height="812" viewBox="0 0 375 812" fill="none" xmlns="http://www.w3.org/2000/svg">
<g opacity="0.25" clip-path="url(#clip0_1_325)" filter="url(#filter0_f_1_325)">
<path d="M113.989 -310.8C110.717 -242.907 95.2223 -176.161 68.2488 -113.771C3.71759 33.6876 -90.9366 68.0528 -77.9037 126.307C-57.7568 216.32 173.965 159.291 293.558 307.875C381.289 416.845 365.615 582.982 361.968 621.447C347.829 771.46 274.839 828.792 314.831 909.959C344.023 969.366 395.638 964.276 461.848 1046.35C507.94 1103.49 529.351 1163.47 540.3 1205.73" stroke="url(#paint0_linear_1_325)" stroke-width="3" stroke-miterlimit="10"/>
<path d="M104.363 -305.666C101.083 -237.763 85.5863 -171.008 58.6153 -108.605C-5.9357 38.8663 -100.57 73.2191 -87.5497 131.453C-67.3903 221.487 164.331 164.457 283.912 313.021C371.636 422.024 355.962 588.161 352.335 626.613C338.195 776.626 265.193 833.939 305.197 915.125C334.389 974.533 385.992 969.423 452.215 1051.52C498.319 1108.68 519.717 1168.64 530.666 1210.9" stroke="url(#paint1_linear_1_325)" stroke-width="3" stroke-miterlimit="10"/>
<path d="M94.7366 -300.531C91.4662 -232.627 75.9686 -165.87 48.9888 -103.47C-15.5622 44.0006 -110.197 78.3533 -97.1637 136.607C-77.0542 226.562 154.717 169.611 274.298 318.175C362.009 427.158 346.335 593.295 342.708 631.747C328.549 781.773 255.579 839.093 295.571 920.26C324.763 979.667 376.397 974.564 442.608 1056.64C488.712 1113.8 510.11 1173.76 521.06 1216.02" stroke="url(#paint2_linear_1_325)" stroke-width="3" stroke-miterlimit="10"/>
<path d="M85.1348 -295.359C81.8441 -227.456 66.336 -160.704 39.3548 -98.3049C-25.1962 49.166 -119.831 83.5188 -106.81 141.753C-86.6508 231.786 145.071 174.757 264.651 323.321C352.375 432.324 336.701 598.461 333.074 636.913C318.915 786.939 245.933 844.239 285.937 925.425C315.129 984.832 366.751 979.71 432.974 1061.8C479.078 1118.96 500.476 1178.93 511.426 1221.18" stroke="url(#paint3_linear_1_325)" stroke-width="3" stroke-miterlimit="10"/>
<path d="M75.4958 -290.245C72.2163 -222.342 56.7191 -155.587 29.7481 -93.1839C-34.7904 54.3068 -129.457 88.6523 -116.404 146.894C-96.2575 236.907 135.476 179.898 255.057 328.462C342.781 437.465 327.094 603.582 323.48 642.053C309.308 792.06 236.339 849.379 276.33 930.546C305.522 989.953 357.157 984.851 423.367 1066.93C469.471 1124.08 490.85 1184.06 501.819 1226.31" stroke="url(#paint4_linear_1_325)" stroke-width="3" stroke-miterlimit="10"/>
<path d="M65.8826 -285.091C62.5949 -217.189 47.098 -150.435 20.1348 -88.0297C-44.4161 59.4412 -139.07 93.8064 -126.03 152.028C-105.908 242.002 125.851 185.032 245.523 333.566C333.234 442.549 317.56 608.686 313.933 647.138C299.774 797.164 226.792 854.464 266.796 935.651C295.988 995.058 347.61 989.935 413.833 1072.03C459.937 1129.19 481.316 1189.16 492.297 1231.43" stroke="url(#paint5_linear_1_325)" stroke-width="3" stroke-miterlimit="10"/>
<path d="M56.2603 -279.906C52.9677 -212.003 37.4483 -145.251 10.4481 -82.8599C-54.0904 64.6307 -148.757 98.9762 -135.704 157.218C-115.577 247.244 116.157 190.234 235.737 338.798C323.481 447.789 307.794 613.906 304.18 652.377C290.008 802.384 217.039 859.703 257.03 940.87C286.222 1000.28 337.857 995.175 404.067 1077.25C450.152 1134.42 471.55 1194.38 482.519 1236.63" stroke="url(#paint6_linear_1_325)" stroke-width="3" stroke-miterlimit="10"/>
<path d="M46.7031 -274.843C43.4327 -206.939 27.9351 -140.182 0.955385 -77.7819C-63.5759 69.6766 -158.23 104.042 -145.21 162.276C-125.05 252.309 106.671 195.28 226.264 343.864C313.995 452.834 298.321 618.971 294.675 657.436C280.535 807.449 207.553 864.749 247.538 945.948C276.73 1005.36 328.364 1000.25 394.555 1082.34C440.646 1139.48 462.044 1199.44 473.006 1241.72" stroke="url(#paint7_linear_1_325)" stroke-width="3" stroke-miterlimit="10"/>
<path d="M36.999 -269.661C33.7253 -201.752 18.2323 -134.99 -8.73627 -72.5803C-73.2675 74.8782 -167.934 109.224 -154.901 167.478C-134.779 257.452 96.9796 200.482 216.619 349.008C304.363 457.999 288.677 624.116 285.042 662.6C270.89 812.594 197.901 869.926 237.893 951.093C267.085 1010.5 318.699 1005.41 384.91 1087.48C431.014 1144.64 452.412 1204.61 463.361 1246.86" stroke="url(#paint8_linear_1_325)" stroke-width="3" stroke-miterlimit="10"/>
<path d="M27.4099 -264.468C24.0987 -196.555 8.56621 -129.796 -18.4417 -67.3967C-82.9927 80.0742 -177.627 114.427 -164.594 172.681C-144.447 262.694 87.2742 205.665 206.867 354.249C294.598 463.22 278.924 629.357 275.278 667.821C261.138 817.834 188.136 875.147 228.141 956.333C257.333 1015.74 308.947 1010.65 375.158 1092.73C421.25 1149.86 442.648 1209.83 453.609 1252.11" stroke="url(#paint9_linear_1_325)" stroke-width="3" stroke-miterlimit="10"/>
<path d="M17.8101 -259.377C14.5224 -191.475 -0.97447 -124.722 -27.9377 -62.3162C-92.4886 85.1547 -187.123 119.507 -174.103 177.742C-153.956 267.755 77.7783 210.746 197.359 359.31C285.083 468.313 269.396 634.43 265.782 672.901C251.63 822.895 178.64 880.227 218.645 961.414C247.824 1020.8 299.439 1015.71 365.662 1097.81C411.766 1154.96 433.164 1214.93 444.113 1257.19" stroke="url(#paint10_linear_1_325)" stroke-width="3" stroke-miterlimit="10"/>
<path d="M8.14429 -254.221C4.86474 -186.318 -10.6325 -119.563 -37.6035 -57.1601C-102.154 90.3108 -196.789 124.664 -183.756 182.918C-163.609 272.931 68.1125 215.902 187.705 364.486C275.417 473.469 259.743 639.606 256.116 678.057C241.956 828.083 168.975 885.383 208.979 966.57C238.171 1025.98 289.805 1020.87 356.016 1102.95C402.107 1160.09 423.505 1220.05 434.467 1262.33" stroke="url(#paint11_linear_1_325)" stroke-width="3" stroke-miterlimit="10"/>
<path d="M-1.44458 -249.027C-4.74035 -181.126 -20.2369 -114.374 -47.1923 -51.9662C-111.743 95.5047 -206.378 129.858 -193.357 188.092C-173.216 278.053 58.6026 221.046 178.079 369.62C265.803 478.623 250.117 644.74 246.502 683.212C232.33 833.218 159.361 890.538 199.365 971.725C228.545 1031.11 280.179 1026.01 346.402 1108.1C392.506 1165.26 413.884 1225.24 424.854 1267.48" stroke="url(#paint12_linear_1_325)" stroke-width="3" stroke-miterlimit="10"/>
<path d="M-11.0959 -243.933C-14.3755 -176.031 -29.8727 -109.276 -56.8437 -46.8726C-121.395 100.598 -216.049 134.964 -202.996 193.205C-182.849 283.219 48.8722 226.189 168.465 374.773C256.177 483.756 240.503 649.893 236.863 688.325C222.704 838.351 149.722 895.651 189.726 976.838C218.918 1036.24 270.552 1031.14 336.763 1113.22C382.855 1170.36 404.233 1230.33 415.215 1272.6" stroke="url(#paint13_linear_1_325)" stroke-width="3" stroke-miterlimit="10"/>
<path d="M-20.7102 -238.78C-23.9979 -170.878 -39.4947 -104.125 -66.4579 -41.719C-131.009 105.752 -225.663 140.117 -212.623 198.339C-192.488 288.333 39.258 231.343 158.819 379.919C246.543 488.922 230.856 655.039 227.242 693.511C213.07 843.517 140.1 900.837 180.105 982.024C209.284 1041.41 260.918 1036.31 327.141 1118.4C373.226 1175.57 394.624 1235.54 405.593 1277.78" stroke="url(#paint14_linear_1_325)" stroke-width="3" stroke-miterlimit="10"/>
<path d="M-30.3181 -233.574C-33.5809 -165.669 -49.0788 -98.9108 -76.0658 -36.5132C-140.597 110.945 -235.251 145.311 -222.199 203.552C-202.109 293.519 29.7093 236.511 149.206 385.073C236.937 494.044 221.263 660.181 217.636 698.633C203.477 848.659 130.495 905.959 170.499 987.145C199.691 1046.55 251.325 1041.45 317.536 1123.52C363.608 1180.68 385.006 1240.64 395.987 1282.9" stroke="url(#paint15_linear_1_325)" stroke-width="3" stroke-miterlimit="10"/>
<path d="M-39.9893 -228.468C-43.2597 -160.564 -58.7573 -93.8072 -85.737 -31.4071C-150.268 116.051 -244.922 150.417 -231.902 208.651C-211.755 298.664 19.9789 241.655 139.559 390.219C227.303 499.209 211.617 665.326 207.982 703.81C193.83 853.804 120.841 911.136 160.845 992.323C190.037 1051.73 241.639 1046.62 307.862 1128.71C353.967 1185.87 375.365 1245.84 386.314 1288.09" stroke="url(#paint16_linear_1_325)" stroke-width="3" stroke-miterlimit="10"/>
<path d="M-49.5967 -223.347C-52.8671 -155.443 -68.3647 -88.6864 -95.3444 -26.2864C-159.876 121.172 -254.53 155.537 -241.497 213.791C-221.363 303.785 10.3715 246.776 129.925 395.384C217.656 504.355 201.982 670.492 198.336 708.956C184.196 858.97 111.194 916.282 151.198 997.469C180.39 1056.88 232.005 1051.79 298.215 1133.86C344.307 1191 365.705 1250.96 376.667 1293.24" stroke="url(#paint17_linear_1_325)" stroke-width="3" stroke-miterlimit="10"/>
<path d="M-59.1733 -218.134C-62.4529 -150.231 -77.9501 -83.4757 -104.921 -21.0728C-169.472 126.398 -264.107 160.751 -251.086 218.985C-231.016 308.964 0.814586 251.977 120.338 400.494C208.062 509.497 192.388 675.634 188.761 714.086C174.609 864.079 101.62 921.412 141.624 1002.6C170.816 1062.01 222.418 1056.9 288.641 1138.99C334.745 1196.15 356.143 1256.11 367.093 1298.37" stroke="url(#paint18_linear_1_325)" stroke-width="3" stroke-miterlimit="10"/>
<path d="M-68.8943 -213.022C-72.1647 -145.118 -87.6623 -78.3614 -114.642 -15.9613C-179.193 131.51 -273.827 165.862 -260.795 224.116C-240.648 314.13 -8.92611 257.101 110.667 405.684C198.437 514.63 182.764 680.767 179.137 719.219C164.977 869.245 91.9952 926.545 131.999 1007.73C161.191 1067.14 212.826 1062.04 279.036 1144.11C325.128 1201.25 346.526 1261.21 357.488 1303.49" stroke="url(#paint19_linear_1_325)" stroke-width="3" stroke-miterlimit="10"/>
<path d="M-78.4509 -207.906C-81.7305 -140.003 -97.2277 -73.2481 -124.199 -10.8451C-188.75 136.626 -283.384 170.979 -270.364 229.213C-250.217 319.226 -18.4827 262.217 101.019 410.831C188.743 519.833 173.069 685.971 169.442 724.422C155.27 874.428 82.3004 931.748 122.305 1012.93C151.497 1072.34 203.118 1067.22 269.342 1149.31C315.446 1206.47 336.844 1266.43 347.793 1308.69" stroke="url(#paint20_linear_1_325)" stroke-width="3" stroke-miterlimit="10"/>
<path d="M-88.0273 -202.693C-91.3069 -134.79 -106.804 -68.035 -133.775 -5.63209C-198.326 141.839 -292.98 176.204 -279.928 234.446C-259.91 324.43 -28.0789 267.442 91.4841 415.935C179.195 524.918 163.521 691.055 159.895 729.507C145.735 879.533 72.7533 936.833 112.757 1018.02C141.949 1077.43 193.584 1072.32 259.794 1154.4C305.886 1211.54 327.277 1271.53 338.246 1313.78" stroke="url(#paint21_linear_1_325)" stroke-width="3" stroke-miterlimit="10"/>
<path d="M-97.7874 -197.557C-101.075 -129.655 -116.572 -62.9015 -143.535 -0.495998C-208.086 146.975 -302.74 181.34 -289.7 239.562C-269.553 329.575 -37.8192 272.566 81.7613 421.13C169.584 530.07 153.91 696.207 150.283 734.659C136.124 884.685 63.1417 941.985 103.146 1023.17C132.338 1082.58 183.96 1077.46 250.183 1159.55C296.287 1216.71 317.665 1276.68 328.634 1318.93" stroke="url(#paint22_linear_1_325)" stroke-width="3" stroke-miterlimit="10"/>
<path d="M-107.337 -192.472C-110.602 -124.573 -126.093 -57.8212 -153.065 4.57626C-217.616 152.047 -312.27 186.412 -299.217 244.654C-279.09 334.68 -47.3685 277.651 72.2442 426.222C159.956 535.205 144.282 701.342 140.655 739.794C126.495 889.82 53.5258 947.139 93.5175 1028.31C122.71 1087.71 174.344 1082.61 240.555 1164.69C286.626 1221.84 308.037 1281.82 319.006 1324.07" stroke="url(#paint23_linear_1_325)" stroke-width="3" stroke-miterlimit="10"/>
<path d="M-116.897 -187.242C-120.168 -119.338 -135.665 -52.5813 -162.645 9.81872C-227.176 157.277 -321.831 191.642 -308.81 249.877C-288.799 339.893 -56.9687 282.906 62.6015 431.366C150.345 540.356 134.671 706.493 131.024 744.957C116.885 894.971 43.9028 952.271 83.8873 1033.47C113.079 1092.88 164.701 1087.75 230.904 1169.86C277.009 1227.02 298.407 1286.98 309.356 1329.24" stroke="url(#paint24_linear_1_325)" stroke-width="3" stroke-miterlimit="10"/>
<path d="M-126.573 -182.187C-129.844 -114.283 -145.341 -47.5259 -172.321 14.8741C-236.852 162.333 -331.507 196.698 -318.474 254.952C-298.327 344.965 -66.5929 287.956 52.9877 436.52C140.719 545.49 125.104 711.59 121.411 750.111C107.258 900.105 34.2692 957.437 74.261 1038.6C103.453 1098.01 155.068 1092.92 221.278 1175C267.382 1232.15 288.78 1292.12 299.73 1334.38" stroke="url(#paint25_linear_1_325)" stroke-width="3" stroke-miterlimit="10"/>
<path d="M-136.188 -177.034C-139.467 -109.131 -154.964 -42.3756 -181.935 20.0273C-246.486 167.498 -341.121 201.851 -328.1 260.085C-307.941 350.118 -76.2193 293.089 43.3612 441.653C131.105 550.644 115.431 716.781 111.784 755.245C97.6445 905.258 24.6428 962.571 64.647 1043.76C93.839 1103.16 145.441 1098.05 211.664 1180.15C257.768 1237.31 279.166 1297.27 290.116 1339.53" stroke="url(#paint26_linear_1_325)" stroke-width="3" stroke-miterlimit="10"/>
</g>
<defs>
<filter id="filter0_f_1_325" x="-5" y="-5" width="385" height="1224" filterUnits="userSpaceOnUse" color-interpolation-filters="sRGB">
<feFlood flood-opacity="0" result="BackgroundImageFix"/>
<feBlend mode="normal" in="SourceGraphic" in2="BackgroundImageFix" result="shape"/>
<feGaussianBlur stdDeviation="2.5" result="effect1_foregroundBlur_1_325"/>
</filter>
<linearGradient id="paint0_linear_1_325" x1="516.825" y1="327.816" x2="109.033" y2="585.05" gradientUnits="userSpaceOnUse">
<stop stop-color="#8924E7"/>
<stop offset="1" stop-color="#6A46F9"/>
</linearGradient>
<linearGradient id="paint1_linear_1_325" x1="507.205" y1="332.96" x2="99.3928" y2="590.206" gradientUnits="userSpaceOnUse">
<stop stop-color="#8924E7"/>
<stop offset="1" stop-color="#6A46F9"/>
</linearGradient>
<linearGradient id="paint2_linear_1_325" x1="497.579" y1="338.094" x2="89.7666" y2="595.341" gradientUnits="userSpaceOnUse">
<stop stop-color="#8924E7"/>
<stop offset="1" stop-color="#6A46F9"/>
</linearGradient>
<linearGradient id="paint3_linear_1_325" x1="487.971" y1="343.257" x2="80.1388" y2="600.516" gradientUnits="userSpaceOnUse">
<stop stop-color="#8924E7"/>
<stop offset="1" stop-color="#6A46F9"/>
</linearGradient>
<linearGradient id="paint4_linear_1_325" x1="478.338" y1="348.38" x2="70.5258" y2="605.627" gradientUnits="userSpaceOnUse">
<stop stop-color="#8924E7"/>
<stop offset="1" stop-color="#6A46F9"/>
</linearGradient>
<linearGradient id="paint5_linear_1_325" x1="468.731" y1="353.545" x2="60.9979" y2="610.741" gradientUnits="userSpaceOnUse">
<stop stop-color="#8924E7"/>
<stop offset="1" stop-color="#6A46F9"/>
</linearGradient>
<linearGradient id="paint6_linear_1_325" x1="459.09" y1="358.699" x2="51.2384" y2="615.971" gradientUnits="userSpaceOnUse">
<stop stop-color="#8924E7"/>
<stop offset="1" stop-color="#6A46F9"/>
</linearGradient>
<linearGradient id="paint7_linear_1_325" x1="449.545" y1="363.782" x2="41.7331" y2="621.029" gradientUnits="userSpaceOnUse">
<stop stop-color="#8924E7"/>
<stop offset="1" stop-color="#6A46F9"/>
</linearGradient>
<linearGradient id="paint8_linear_1_325" x1="439.841" y1="368.964" x2="32.088" y2="626.174" gradientUnits="userSpaceOnUse">
<stop stop-color="#8924E7"/>
<stop offset="1" stop-color="#6A46F9"/>
</linearGradient>
<linearGradient id="paint9_linear_1_325" x1="430.24" y1="374.138" x2="22.3483" y2="631.434" gradientUnits="userSpaceOnUse">
<stop stop-color="#8924E7"/>
<stop offset="1" stop-color="#6A46F9"/>
</linearGradient>
<linearGradient id="paint10_linear_1_325" x1="420.652" y1="379.248" x2="12.8398" y2="636.495" gradientUnits="userSpaceOnUse">
<stop stop-color="#8924E7"/>
<stop offset="1" stop-color="#6A46F9"/>
</linearGradient>
<linearGradient id="paint11_linear_1_325" x1="410.987" y1="384.404" x2="3.17429" y2="641.651" gradientUnits="userSpaceOnUse">
<stop stop-color="#8924E7"/>
<stop offset="1" stop-color="#6A46F9"/>
</linearGradient>
<linearGradient id="paint12_linear_1_325" x1="401.385" y1="389.579" x2="-6.42698" y2="646.825" gradientUnits="userSpaceOnUse">
<stop stop-color="#8924E7"/>
<stop offset="1" stop-color="#6A46F9"/>
</linearGradient>
<linearGradient id="paint13_linear_1_325" x1="391.74" y1="394.682" x2="-16.0722" y2="651.928" gradientUnits="userSpaceOnUse">
<stop stop-color="#8924E7"/>
<stop offset="1" stop-color="#6A46F9"/>
</linearGradient>
<linearGradient id="paint14_linear_1_325" x1="382.132" y1="399.845" x2="-25.6999" y2="657.104" gradientUnits="userSpaceOnUse">
<stop stop-color="#8924E7"/>
<stop offset="1" stop-color="#6A46F9"/>
</linearGradient>
<linearGradient id="paint15_linear_1_325" x1="372.506" y1="405.022" x2="-35.287" y2="662.256" gradientUnits="userSpaceOnUse">
<stop stop-color="#8924E7"/>
<stop offset="1" stop-color="#6A46F9"/>
</linearGradient>
<linearGradient id="paint16_linear_1_325" x1="362.853" y1="410.157" x2="-44.9596" y2="667.404" gradientUnits="userSpaceOnUse">
<stop stop-color="#8924E7"/>
<stop offset="1" stop-color="#6A46F9"/>
</linearGradient>
<linearGradient id="paint17_linear_1_325" x1="353.246" y1="415.278" x2="-54.6064" y2="672.55" gradientUnits="userSpaceOnUse">
<stop stop-color="#8924E7"/>
<stop offset="1" stop-color="#6A46F9"/>
</linearGradient>
<linearGradient id="paint18_linear_1_325" x1="343.65" y1="420.462" x2="-64.1623" y2="677.709" gradientUnits="userSpaceOnUse">
<stop stop-color="#8924E7"/>
<stop offset="1" stop-color="#6A46F9"/>
</linearGradient>
<linearGradient id="paint19_linear_1_325" x1="333.948" y1="425.603" x2="-73.805" y2="682.812" gradientUnits="userSpaceOnUse">
<stop stop-color="#8924E7"/>
<stop offset="1" stop-color="#6A46F9"/>
</linearGradient>
<linearGradient id="paint20_linear_1_325" x1="324.391" y1="430.719" x2="-83.4999" y2="688.016" gradientUnits="userSpaceOnUse">
<stop stop-color="#8924E7"/>
<stop offset="1" stop-color="#6A46F9"/>
</linearGradient>
<linearGradient id="paint21_linear_1_325" x1="314.79" y1="435.893" x2="-93.0222" y2="693.139" gradientUnits="userSpaceOnUse">
<stop stop-color="#8924E7"/>
<stop offset="1" stop-color="#6A46F9"/>
</linearGradient>
<linearGradient id="paint22_linear_1_325" x1="305.055" y1="441.068" x2="-102.659" y2="698.253" gradientUnits="userSpaceOnUse">
<stop stop-color="#8924E7"/>
<stop offset="1" stop-color="#6A46F9"/>
</linearGradient>
<linearGradient id="paint23_linear_1_325" x1="295.506" y1="446.153" x2="-112.287" y2="703.387" gradientUnits="userSpaceOnUse">
<stop stop-color="#8924E7"/>
<stop offset="1" stop-color="#6A46F9"/>
</linearGradient>
<linearGradient id="paint24_linear_1_325" x1="285.92" y1="451.344" x2="-121.892" y2="708.59" gradientUnits="userSpaceOnUse">
<stop stop-color="#8924E7"/>
<stop offset="1" stop-color="#6A46F9"/>
</linearGradient>
<linearGradient id="paint25_linear_1_325" x1="276.269" y1="456.439" x2="-131.544" y2="713.685" gradientUnits="userSpaceOnUse">
<stop stop-color="#8924E7"/>
<stop offset="1" stop-color="#6A46F9"/>
</linearGradient>
<linearGradient id="paint26_linear_1_325" x1="266.655" y1="461.592" x2="-141.158" y2="718.838" gradientUnits="userSpaceOnUse">
<stop stop-color="#8924E7"/>
<stop offset="1" stop-color="#6A46F9"/>
</linearGradient>
<clipPath id="clip0_1_325">
<rect width="375" height="1214" fill="white"/>
</clipPath>
</defs>
</svg>
