<svg width="38" height="38" viewBox="0 0 38 38" fill="none" xmlns="http://www.w3.org/2000/svg">
<rect width="38" height="38" rx="19" fill="white" fill-opacity="0.2"/>
<path d="M24.2307 15.7692C24.2307 16.7038 23.473 17.4615 22.5384 17.4615C21.6038 17.4615 20.8461 16.7038 20.8461 15.7692C20.8461 14.8345 21.6038 14.0768 22.5384 14.0768C23.473 14.0768 24.2307 14.8345 24.2307 15.7692Z" fill="white"/>
<path fill-rule="evenodd" clip-rule="evenodd" d="M19.2023 10.0576H19.1052C17.152 10.0576 15.6212 10.0576 14.4269 10.2182C13.2044 10.3825 12.2398 10.7255 11.4827 11.4827C10.7255 12.2398 10.3825 13.2044 10.2182 14.4269C10.0576 15.6212 10.0576 17.152 10.0576 19.1052V19.2023C10.0576 21.1556 10.0576 22.6863 10.2182 23.8806C10.3825 25.1031 10.7255 26.0677 11.4827 26.8249C12.2398 27.582 13.2044 27.925 14.4269 28.0894C15.6212 28.2499 17.152 28.2499 19.1052 28.2499H19.2023C21.1556 28.2499 22.6863 28.2499 23.8806 28.0894C25.1031 27.925 26.0677 27.582 26.8249 26.8249C27.582 26.0677 27.925 25.1031 28.0894 23.8806C28.2499 22.6863 28.2499 21.1556 28.2499 19.2023V19.1052C28.2499 17.152 28.2499 15.6212 28.0894 14.4269C27.925 13.2044 27.582 12.2398 26.8249 11.4827C26.0677 10.7255 25.1031 10.3825 23.8806 10.2182C22.6863 10.0576 21.1556 10.0576 19.2023 10.0576ZM12.3801 12.3801C12.8622 11.8981 13.5143 11.6215 14.596 11.4761C15.696 11.3282 17.1414 11.3268 19.1538 11.3268C21.1661 11.3268 22.6115 11.3282 23.7115 11.4761C24.7932 11.6215 25.4454 11.8981 25.9274 12.3801C26.4094 12.8622 26.686 13.5143 26.8315 14.596C26.9793 15.696 26.9807 17.1414 26.9807 19.1538C26.9807 19.5347 26.9806 19.8954 26.9796 20.2372L26.7916 20.2112C24.3854 19.878 22.1834 21.1289 21.0622 23.0144C19.6157 19.3548 15.7932 16.8591 11.5221 17.4723L11.3311 17.4999C11.3407 16.3106 11.3723 15.3682 11.4761 14.596C11.6215 13.5143 11.8981 12.8622 12.3801 12.3801Z" fill="white"/>
</svg>
