<svg width="38" height="38" viewBox="0 0 38 38" fill="none" xmlns="http://www.w3.org/2000/svg">
<rect width="38" height="38" rx="19" fill="white" fill-opacity="0.2"/>
<path d="M18.9998 29.8334C17.5193 29.8334 16.12 29.5489 14.8019 28.9797C13.4839 28.4106 12.333 27.6342 11.3493 26.6506C10.3657 25.6669 9.58928 24.5161 9.02017 23.198C8.45106 21.8799 8.1665 20.4806 8.1665 19.0001C8.1665 17.5015 8.46009 16.0931 9.04725 14.7751C9.63442 13.457 10.4289 12.3105 11.4306 11.3355C12.4323 10.3605 13.6012 9.5888 14.9373 9.02041C16.2734 8.45203 17.6998 8.16747 19.2165 8.16675C20.6609 8.16675 22.0241 8.41519 23.3061 8.91208C24.588 9.40897 25.7122 10.0951 26.6785 10.9704C27.6448 11.8457 28.4122 12.8839 28.9806 14.085C29.549 15.2861 29.8332 16.5814 29.8332 17.9709C29.8332 20.0473 29.2012 21.6409 27.9373 22.7517C26.6734 23.8624 25.1387 24.4175 23.3332 24.4167H21.329C21.1665 24.4167 21.0538 24.4619 20.991 24.5522C20.9282 24.6424 20.8964 24.7417 20.8957 24.8501C20.8957 25.0667 21.0311 25.3784 21.3019 25.785C21.5728 26.1916 21.7082 26.6564 21.7082 27.1792C21.7082 28.082 21.4601 28.7501 20.9639 29.1834C20.4678 29.6167 19.8131 29.8334 18.9998 29.8334ZM13.0415 20.0834C13.5109 20.0834 13.8991 19.9299 14.2061 19.623C14.513 19.3161 14.6665 18.9279 14.6665 18.4584C14.6665 17.989 14.513 17.6008 14.2061 17.2938C13.8991 16.9869 13.5109 16.8334 13.0415 16.8334C12.5721 16.8334 12.1839 16.9869 11.8769 17.2938C11.57 17.6008 11.4165 17.989 11.4165 18.4584C11.4165 18.9279 11.57 19.3161 11.8769 19.623C12.1839 19.9299 12.5721 20.0834 13.0415 20.0834ZM16.2915 15.7501C16.7609 15.7501 17.1491 15.5966 17.4561 15.2897C17.763 14.9827 17.9165 14.5945 17.9165 14.1251C17.9165 13.6556 17.763 13.2674 17.4561 12.9605C17.1491 12.6536 16.7609 12.5001 16.2915 12.5001C15.8221 12.5001 15.4339 12.6536 15.1269 12.9605C14.82 13.2674 14.6665 13.6556 14.6665 14.1251C14.6665 14.5945 14.82 14.9827 15.1269 15.2897C15.4339 15.5966 15.8221 15.7501 16.2915 15.7501ZM21.7082 15.7501C22.1776 15.7501 22.5658 15.5966 22.8728 15.2897C23.1797 14.9827 23.3332 14.5945 23.3332 14.1251C23.3332 13.6556 23.1797 13.2674 22.8728 12.9605C22.5658 12.6536 22.1776 12.5001 21.7082 12.5001C21.2387 12.5001 20.8505 12.6536 20.5436 12.9605C20.2366 13.2674 20.0832 13.6556 20.0832 14.1251C20.0832 14.5945 20.2366 14.9827 20.5436 15.2897C20.8505 15.5966 21.2387 15.7501 21.7082 15.7501ZM24.9582 20.0834C25.4276 20.0834 25.8158 19.9299 26.1228 19.623C26.4297 19.3161 26.5832 18.9279 26.5832 18.4584C26.5832 17.989 26.4297 17.6008 26.1228 17.2938C25.8158 16.9869 25.4276 16.8334 24.9582 16.8334C24.4887 16.8334 24.1005 16.9869 23.7936 17.2938C23.4866 17.6008 23.3332 17.989 23.3332 18.4584C23.3332 18.9279 23.4866 19.3161 23.7936 19.623C24.1005 19.9299 24.4887 20.0834 24.9582 20.0834Z" fill="white"/>
</svg>
